<svg xmlns="http://www.w3.org/2000/svg" xmlns:xlink="http://www.w3.org/1999/xlink" width="500" zoomAndPan="magnify" viewBox="0 0 375 374.999991" height="500" preserveAspectRatio="xMidYMid meet" version="1.0"><defs><g/></defs><g fill="#b55040" fill-opacity="1"><g transform="translate(10.769535, 204.703523)"><g><path d="M 30.609375 -35.65625 C 30.609375 -34.15625 30.609375 -32.691406 30.609375 -31.265625 C 30.609375 -29.847656 30.609375 -28.644531 30.609375 -27.65625 C 30.609375 -26.726562 30.53125 -25.5 30.375 -23.96875 C 30.21875 -22.4375 29.945312 -20.90625 29.5625 -19.375 C 29.175781 -17.851562 28.59375 -16.597656 27.8125 -15.609375 C 26.625 -14.109375 25.648438 -13.019531 24.890625 -12.34375 C 24.140625 -11.675781 23.429688 -11.1875 22.765625 -10.875 C 21.878906 -10.507812 20.992188 -10.195312 20.109375 -9.9375 C 19.234375 -9.6875 18.359375 -9.5625 17.484375 -9.5625 C 16.335938 -9.5625 15.582031 -9.335938 15.21875 -8.890625 C 14.863281 -8.453125 14.632812 -7.691406 14.53125 -6.609375 C 14.476562 -5.929688 14.4375 -5.035156 14.40625 -3.921875 C 14.382812 -2.804688 14.398438 -1.8125 14.453125 -0.9375 C 14.453125 -0.3125 14.191406 0 13.671875 0 L 2.875 0 C 2.351562 0 2.09375 -0.3125 2.09375 -0.9375 C 2.09375 -0.9375 2.101562 -1.554688 2.125 -2.796875 C 2.15625 -4.035156 2.195312 -5.5625 2.25 -7.375 C 2.300781 -9.1875 2.335938 -10.972656 2.359375 -12.734375 C 2.390625 -14.492188 2.40625 -15.945312 2.40625 -17.09375 C 2.457031 -21.4375 2.441406 -25.796875 2.359375 -30.171875 C 2.285156 -34.554688 2.25 -38.945312 2.25 -43.34375 C 2.195312 -45.050781 2.171875 -46.765625 2.171875 -48.484375 C 2.171875 -48.734375 2.328125 -48.859375 2.640625 -48.859375 L 17.171875 -48.859375 C 18.097656 -48.859375 19.390625 -48.804688 21.046875 -48.703125 C 22.710938 -48.609375 24.425781 -47.859375 26.1875 -46.453125 C 27.375 -45.578125 28.289062 -44.476562 28.9375 -43.15625 C 29.582031 -41.832031 30.019531 -40.5 30.25 -39.15625 C 30.488281 -37.8125 30.609375 -36.644531 30.609375 -35.65625 Z M 18.875 -32.859375 C 18.875 -33.222656 18.847656 -33.6875 18.796875 -34.25 C 18.742188 -34.820312 18.5625 -35.328125 18.25 -35.765625 C 17.945312 -36.210938 17.429688 -36.4375 16.703125 -36.4375 C 15.972656 -36.4375 15.441406 -36.203125 15.109375 -35.734375 C 14.773438 -35.265625 14.566406 -34.757812 14.484375 -34.21875 C 14.410156 -33.675781 14.375 -33.25 14.375 -32.9375 C 14.320312 -32.519531 14.28125 -31.769531 14.25 -30.6875 C 14.226562 -29.601562 14.203125 -28.53125 14.171875 -27.46875 C 14.148438 -26.40625 14.164062 -25.664062 14.21875 -25.25 C 14.21875 -24.882812 14.253906 -24.40625 14.328125 -23.8125 C 14.410156 -23.21875 14.601562 -22.671875 14.90625 -22.171875 C 15.21875 -21.679688 15.765625 -21.4375 16.546875 -21.4375 C 17.679688 -21.4375 18.335938 -21.820312 18.515625 -22.59375 C 18.703125 -23.375 18.820312 -24 18.875 -24.46875 C 18.875 -24.988281 18.882812 -25.84375 18.90625 -27.03125 C 18.9375 -28.226562 18.953125 -29.394531 18.953125 -30.53125 C 18.953125 -31.664062 18.925781 -32.441406 18.875 -32.859375 Z M 18.875 -32.859375 "/></g></g></g><g fill="#b55040" fill-opacity="1"><g transform="translate(43.47431, 204.703523)"><g><path d="M 35.890625 -4.265625 C 36.046875 -3.546875 36.226562 -2.835938 36.4375 -2.140625 C 36.644531 -1.441406 36.851562 -0.726562 37.0625 0 L 21.359375 0 C 21.304688 -0.363281 21.28125 -0.710938 21.28125 -1.046875 C 21.28125 -1.378906 21.28125 -1.726562 21.28125 -2.09375 C 21.125 -3.539062 20.984375 -4.796875 20.859375 -5.859375 C 20.734375 -6.921875 20.539062 -8.078125 20.28125 -9.328125 C 20.019531 -10.304688 19.863281 -11.039062 19.8125 -11.53125 C 19.757812 -12.03125 19.085938 -12.304688 17.796875 -12.359375 C 16.859375 -12.410156 16.285156 -12.054688 16.078125 -11.296875 C 15.867188 -10.546875 15.6875 -9.367188 15.53125 -7.765625 C 15.425781 -6.472656 15.320312 -5.175781 15.21875 -3.875 C 15.125 -2.582031 15.078125 -1.289062 15.078125 0 L 1.546875 0 C 2.378906 -3.625 3.066406 -7.285156 3.609375 -10.984375 C 4.148438 -14.691406 4.707031 -18.382812 5.28125 -22.0625 C 5.851562 -25.894531 6.59375 -29.6875 7.5 -33.4375 C 8.40625 -37.195312 9.117188 -41.019531 9.640625 -44.90625 C 9.785156 -46.25 9.910156 -47.566406 10.015625 -48.859375 L 27.1875 -48.859375 C 27.550781 -45.179688 28.054688 -41.554688 28.703125 -37.984375 C 29.347656 -34.410156 30.035156 -30.863281 30.765625 -27.34375 C 31.585938 -23.507812 32.398438 -19.648438 33.203125 -15.765625 C 34.015625 -11.878906 34.910156 -8.046875 35.890625 -4.265625 Z M 17.328125 -33.5625 C 17.066406 -31.4375 16.832031 -29.554688 16.625 -27.921875 C 16.414062 -26.296875 16.425781 -25.003906 16.65625 -24.046875 C 16.894531 -23.085938 17.503906 -22.582031 18.484375 -22.53125 C 18.535156 -22.53125 18.5625 -22.53125 18.5625 -22.53125 C 18.664062 -22.53125 18.769531 -22.59375 18.875 -22.71875 C 18.976562 -22.851562 19.082031 -22.945312 19.1875 -23 C 19.5 -23.050781 19.679688 -23.398438 19.734375 -24.046875 C 19.785156 -24.691406 19.796875 -25.441406 19.765625 -26.296875 C 19.742188 -27.148438 19.707031 -27.890625 19.65625 -28.515625 C 19.601562 -29.546875 19.507812 -30.578125 19.375 -31.609375 C 19.25 -32.648438 18.925781 -33.484375 18.40625 -34.109375 C 18.25 -34.265625 18.039062 -34.300781 17.78125 -34.21875 C 17.53125 -34.144531 17.378906 -33.925781 17.328125 -33.5625 Z M 17.328125 -33.5625 "/></g></g></g><g fill="#b55040" fill-opacity="1"><g transform="translate(82.083045, 204.703523)"><g><path d="M 30.140625 -48.703125 C 30.140625 -46.640625 30.191406 -44.554688 30.296875 -42.453125 C 30.398438 -40.359375 30.398438 -38.273438 30.296875 -36.203125 C 30.296875 -35.210938 30.269531 -34.210938 30.21875 -33.203125 C 30.164062 -32.203125 30.140625 -31.179688 30.140625 -30.140625 C 30.140625 -29.671875 29.957031 -29.410156 29.59375 -29.359375 C 28.351562 -29.210938 27.203125 -29.1875 26.140625 -29.28125 C 25.078125 -29.382812 24.3125 -29.257812 23.84375 -28.90625 C 23.738281 -28.800781 23.570312 -28.628906 23.34375 -28.390625 C 23.113281 -28.160156 22.972656 -27.8125 22.921875 -27.34375 C 22.816406 -26.925781 22.75 -26.019531 22.71875 -24.625 C 22.695312 -23.226562 22.671875 -21.554688 22.640625 -19.609375 C 22.617188 -17.671875 22.609375 -15.648438 22.609375 -13.546875 C 22.609375 -11.453125 22.609375 -9.472656 22.609375 -7.609375 C 22.609375 -5.742188 22.617188 -4.191406 22.640625 -2.953125 C 22.671875 -1.710938 22.6875 -1.015625 22.6875 -0.859375 C 22.6875 -0.285156 22.453125 0 21.984375 0 L 10.015625 0 C 9.609375 0 9.378906 -0.257812 9.328125 -0.78125 C 9.328125 -1.445312 9.335938 -2.582031 9.359375 -4.1875 C 9.390625 -5.800781 9.429688 -7.613281 9.484375 -9.625 C 9.535156 -11.644531 9.585938 -13.648438 9.640625 -15.640625 C 9.691406 -17.640625 9.726562 -19.363281 9.75 -20.8125 C 9.769531 -22.269531 9.757812 -23.203125 9.71875 -23.609375 C 9.613281 -24.390625 9.570312 -25.164062 9.59375 -25.9375 C 9.625 -26.71875 9.351562 -27.394531 8.78125 -27.96875 C 8.3125 -28.382812 7.804688 -28.679688 7.265625 -28.859375 C 6.722656 -29.046875 6.164062 -29.160156 5.59375 -29.203125 C 4.914062 -29.253906 4.304688 -29.28125 3.765625 -29.28125 C 3.222656 -29.28125 2.953125 -29.28125 2.953125 -29.28125 C 2.484375 -29.28125 2.25 -29.539062 2.25 -30.0625 C 2.25 -30.0625 2.25 -30.410156 2.25 -31.109375 C 2.25 -31.804688 2.234375 -32.582031 2.203125 -33.4375 C 2.179688 -34.289062 2.144531 -34.953125 2.09375 -35.421875 C 2.039062 -36.148438 1.988281 -37.195312 1.9375 -38.5625 C 1.882812 -39.9375 1.859375 -41.363281 1.859375 -42.84375 C 1.859375 -44.320312 1.859375 -45.59375 1.859375 -46.65625 C 1.859375 -47.71875 1.859375 -48.300781 1.859375 -48.40625 C 1.859375 -48.707031 2.09375 -48.859375 2.5625 -48.859375 L 29.984375 -48.859375 C 29.984375 -48.859375 30.007812 -48.84375 30.0625 -48.8125 C 30.113281 -48.789062 30.140625 -48.753906 30.140625 -48.703125 Z M 30.140625 -48.703125 "/></g></g></g><g fill="#b55040" fill-opacity="1"><g transform="translate(114.477089, 204.703523)"><g><path d="M 35.890625 -4.265625 C 36.046875 -3.546875 36.226562 -2.835938 36.4375 -2.140625 C 36.644531 -1.441406 36.851562 -0.726562 37.0625 0 L 21.359375 0 C 21.304688 -0.363281 21.28125 -0.710938 21.28125 -1.046875 C 21.28125 -1.378906 21.28125 -1.726562 21.28125 -2.09375 C 21.125 -3.539062 20.984375 -4.796875 20.859375 -5.859375 C 20.734375 -6.921875 20.539062 -8.078125 20.28125 -9.328125 C 20.019531 -10.304688 19.863281 -11.039062 19.8125 -11.53125 C 19.757812 -12.03125 19.085938 -12.304688 17.796875 -12.359375 C 16.859375 -12.410156 16.285156 -12.054688 16.078125 -11.296875 C 15.867188 -10.546875 15.6875 -9.367188 15.53125 -7.765625 C 15.425781 -6.472656 15.320312 -5.175781 15.21875 -3.875 C 15.125 -2.582031 15.078125 -1.289062 15.078125 0 L 1.546875 0 C 2.378906 -3.625 3.066406 -7.285156 3.609375 -10.984375 C 4.148438 -14.691406 4.707031 -18.382812 5.28125 -22.0625 C 5.851562 -25.894531 6.59375 -29.6875 7.5 -33.4375 C 8.40625 -37.195312 9.117188 -41.019531 9.640625 -44.90625 C 9.785156 -46.25 9.910156 -47.566406 10.015625 -48.859375 L 27.1875 -48.859375 C 27.550781 -45.179688 28.054688 -41.554688 28.703125 -37.984375 C 29.347656 -34.410156 30.035156 -30.863281 30.765625 -27.34375 C 31.585938 -23.507812 32.398438 -19.648438 33.203125 -15.765625 C 34.015625 -11.878906 34.910156 -8.046875 35.890625 -4.265625 Z M 17.328125 -33.5625 C 17.066406 -31.4375 16.832031 -29.554688 16.625 -27.921875 C 16.414062 -26.296875 16.425781 -25.003906 16.65625 -24.046875 C 16.894531 -23.085938 17.503906 -22.582031 18.484375 -22.53125 C 18.535156 -22.53125 18.5625 -22.53125 18.5625 -22.53125 C 18.664062 -22.53125 18.769531 -22.59375 18.875 -22.71875 C 18.976562 -22.851562 19.082031 -22.945312 19.1875 -23 C 19.5 -23.050781 19.679688 -23.398438 19.734375 -24.046875 C 19.785156 -24.691406 19.796875 -25.441406 19.765625 -26.296875 C 19.742188 -27.148438 19.707031 -27.890625 19.65625 -28.515625 C 19.601562 -29.546875 19.507812 -30.578125 19.375 -31.609375 C 19.25 -32.648438 18.925781 -33.484375 18.40625 -34.109375 C 18.25 -34.265625 18.039062 -34.300781 17.78125 -34.21875 C 17.53125 -34.144531 17.378906 -33.925781 17.328125 -33.5625 Z M 17.328125 -33.5625 "/></g></g></g><g fill="#b55040" fill-opacity="1"><g transform="translate(153.085824, 204.703523)"><g/></g></g><g fill="#b55040" fill-opacity="1"><g transform="translate(163.961522, 204.703523)"><g><path d="M 34.109375 -23.46875 C 34.109375 -22.582031 34.132812 -21.242188 34.1875 -19.453125 C 34.238281 -17.671875 34.289062 -15.691406 34.34375 -13.515625 C 34.394531 -11.335938 34.457031 -9.25 34.53125 -7.25 C 34.613281 -5.257812 34.664062 -3.617188 34.6875 -2.328125 C 34.707031 -1.035156 34.71875 -0.390625 34.71875 -0.390625 C 34.71875 -0.128906 34.644531 0 34.5 0 L 24.15625 0 C 23.945312 0 23.867188 -0.128906 23.921875 -0.390625 C 23.972656 -2.566406 23.945312 -4.703125 23.84375 -6.796875 C 23.738281 -8.890625 23.6875 -11.128906 23.6875 -13.515625 C 23.6875 -14.035156 23.476562 -14.382812 23.0625 -14.5625 C 22.65625 -14.75 22.398438 -14.582031 22.296875 -14.0625 C 21.828125 -11.414062 21.4375 -9.03125 21.125 -6.90625 C 20.820312 -4.789062 20.4375 -2.59375 19.96875 -0.3125 C 19.914062 -0.101562 19.835938 0 19.734375 0 L 16.3125 0 C 16.15625 0 16.050781 -0.101562 16 -0.3125 C 15.582031 -2.4375 15.296875 -4.632812 15.140625 -6.90625 C 14.992188 -9.1875 14.6875 -11.414062 14.21875 -13.59375 C 14.007812 -14.320312 13.679688 -14.695312 13.234375 -14.71875 C 12.796875 -14.75 12.578125 -14.398438 12.578125 -13.671875 C 12.628906 -11.753906 12.566406 -9.550781 12.390625 -7.0625 C 12.210938 -4.582031 12.148438 -2.359375 12.203125 -0.390625 C 12.203125 -0.128906 12.097656 0 11.890625 0 L 2.40625 0 C 2.195312 0 2.09375 -0.128906 2.09375 -0.390625 L 2.09375 -0.859375 C 2.195312 -3.441406 2.273438 -6.390625 2.328125 -9.703125 C 2.378906 -13.023438 2.414062 -16.394531 2.4375 -19.8125 C 2.46875 -23.226562 2.484375 -26.4375 2.484375 -29.4375 C 2.484375 -32.445312 2.46875 -34.972656 2.4375 -37.015625 C 2.414062 -39.066406 2.40625 -40.320312 2.40625 -40.78125 C 2.40625 -42.03125 2.390625 -43.273438 2.359375 -44.515625 C 2.335938 -45.753906 2.328125 -47.023438 2.328125 -48.328125 C 2.328125 -48.378906 2.328125 -48.429688 2.328125 -48.484375 C 2.328125 -48.734375 2.429688 -48.859375 2.640625 -48.859375 L 15.84375 -48.859375 C 16 -48.859375 16.101562 -48.757812 16.15625 -48.5625 C 16.363281 -46.4375 16.53125 -44.285156 16.65625 -42.109375 C 16.789062 -39.929688 17.066406 -37.882812 17.484375 -35.96875 C 17.535156 -35.65625 17.6875 -35.445312 17.9375 -35.34375 C 18.195312 -35.238281 18.457031 -35.210938 18.71875 -35.265625 C 18.976562 -35.367188 19.160156 -35.457031 19.265625 -35.53125 C 19.367188 -35.613281 19.445312 -36.019531 19.5 -36.75 C 19.550781 -37.164062 19.628906 -38.097656 19.734375 -39.546875 C 19.835938 -40.992188 19.96875 -42.554688 20.125 -44.234375 C 20.28125 -45.921875 20.460938 -47.363281 20.671875 -48.5625 C 20.671875 -48.757812 20.742188 -48.859375 20.890625 -48.859375 L 34.34375 -48.859375 C 34.550781 -48.859375 34.65625 -48.734375 34.65625 -48.484375 C 34.601562 -44.335938 34.507812 -40.175781 34.375 -36 C 34.25 -31.832031 34.160156 -27.65625 34.109375 -23.46875 Z M 34.109375 -23.46875 "/></g></g></g><g fill="#b55040" fill-opacity="1"><g transform="translate(200.861219, 204.703523)"><g><path d="M 35.890625 -4.265625 C 36.046875 -3.546875 36.226562 -2.835938 36.4375 -2.140625 C 36.644531 -1.441406 36.851562 -0.726562 37.0625 0 L 21.359375 0 C 21.304688 -0.363281 21.28125 -0.710938 21.28125 -1.046875 C 21.28125 -1.378906 21.28125 -1.726562 21.28125 -2.09375 C 21.125 -3.539062 20.984375 -4.796875 20.859375 -5.859375 C 20.734375 -6.921875 20.539062 -8.078125 20.28125 -9.328125 C 20.019531 -10.304688 19.863281 -11.039062 19.8125 -11.53125 C 19.757812 -12.03125 19.085938 -12.304688 17.796875 -12.359375 C 16.859375 -12.410156 16.285156 -12.054688 16.078125 -11.296875 C 15.867188 -10.546875 15.6875 -9.367188 15.53125 -7.765625 C 15.425781 -6.472656 15.320312 -5.175781 15.21875 -3.875 C 15.125 -2.582031 15.078125 -1.289062 15.078125 0 L 1.546875 0 C 2.378906 -3.625 3.066406 -7.285156 3.609375 -10.984375 C 4.148438 -14.691406 4.707031 -18.382812 5.28125 -22.0625 C 5.851562 -25.894531 6.59375 -29.6875 7.5 -33.4375 C 8.40625 -37.195312 9.117188 -41.019531 9.640625 -44.90625 C 9.785156 -46.25 9.910156 -47.566406 10.015625 -48.859375 L 27.1875 -48.859375 C 27.550781 -45.179688 28.054688 -41.554688 28.703125 -37.984375 C 29.347656 -34.410156 30.035156 -30.863281 30.765625 -27.34375 C 31.585938 -23.507812 32.398438 -19.648438 33.203125 -15.765625 C 34.015625 -11.878906 34.910156 -8.046875 35.890625 -4.265625 Z M 17.328125 -33.5625 C 17.066406 -31.4375 16.832031 -29.554688 16.625 -27.921875 C 16.414062 -26.296875 16.425781 -25.003906 16.65625 -24.046875 C 16.894531 -23.085938 17.503906 -22.582031 18.484375 -22.53125 C 18.535156 -22.53125 18.5625 -22.53125 18.5625 -22.53125 C 18.664062 -22.53125 18.769531 -22.59375 18.875 -22.71875 C 18.976562 -22.851562 19.082031 -22.945312 19.1875 -23 C 19.5 -23.050781 19.679688 -23.398438 19.734375 -24.046875 C 19.785156 -24.691406 19.796875 -25.441406 19.765625 -26.296875 C 19.742188 -27.148438 19.707031 -27.890625 19.65625 -28.515625 C 19.601562 -29.546875 19.507812 -30.578125 19.375 -31.609375 C 19.25 -32.648438 18.925781 -33.484375 18.40625 -34.109375 C 18.25 -34.265625 18.039062 -34.300781 17.78125 -34.21875 C 17.53125 -34.144531 17.378906 -33.925781 17.328125 -33.5625 Z M 17.328125 -33.5625 "/></g></g></g><g fill="#b55040" fill-opacity="1"><g transform="translate(239.469943, 204.703523)"><g><path d="M 30.0625 -12.359375 C 30.0625 -11.835938 30.085938 -10.953125 30.140625 -9.703125 C 30.191406 -8.460938 30.253906 -7.144531 30.328125 -5.75 C 30.410156 -4.351562 30.476562 -3.148438 30.53125 -2.140625 C 30.582031 -1.128906 30.609375 -0.625 30.609375 -0.625 C 30.609375 -0.207031 30.375 0 29.90625 0 C 29.90625 0 29.453125 0 28.546875 0 C 27.640625 0 26.515625 0 25.171875 0 C 23.828125 0 22.425781 0 20.96875 0 C 19.519531 0 18.222656 0 17.078125 0 C 15.941406 0 15.195312 0 14.84375 0 C 14.164062 0 13.0625 -0.140625 11.53125 -0.421875 C 10.007812 -0.710938 8.421875 -1.632812 6.765625 -3.1875 C 5.566406 -4.269531 4.628906 -5.578125 3.953125 -7.109375 C 3.285156 -8.640625 2.804688 -10.140625 2.515625 -11.609375 C 2.234375 -13.085938 2.09375 -14.34375 2.09375 -15.375 C 2.09375 -15.945312 2.09375 -16.921875 2.09375 -18.296875 C 2.09375 -19.671875 2.09375 -21.171875 2.09375 -22.796875 C 2.09375 -24.429688 2.078125 -26.007812 2.046875 -27.53125 C 2.023438 -29.0625 2.015625 -30.316406 2.015625 -31.296875 C 2.015625 -32.285156 2.015625 -32.78125 2.015625 -32.78125 C 2.015625 -35.476562 2.363281 -37.847656 3.0625 -39.890625 C 3.769531 -41.941406 4.769531 -43.5625 6.0625 -44.75 C 7.300781 -45.988281 8.800781 -46.984375 10.5625 -47.734375 C 12.320312 -48.484375 14.523438 -48.859375 17.171875 -48.859375 C 17.171875 -48.859375 17.597656 -48.859375 18.453125 -48.859375 C 19.304688 -48.859375 20.367188 -48.859375 21.640625 -48.859375 C 22.910156 -48.859375 24.175781 -48.859375 25.4375 -48.859375 C 26.707031 -48.859375 27.769531 -48.859375 28.625 -48.859375 C 29.476562 -48.859375 29.90625 -48.859375 29.90625 -48.859375 C 30.375 -48.859375 30.609375 -48.65625 30.609375 -48.25 C 30.609375 -48.25 30.59375 -47.585938 30.5625 -46.265625 C 30.539062 -44.941406 30.515625 -43.304688 30.484375 -41.359375 C 30.460938 -39.421875 30.453125 -37.441406 30.453125 -35.421875 C 30.453125 -33.398438 30.425781 -31.664062 30.375 -30.21875 C 30.375 -29.75 30.140625 -29.539062 29.671875 -29.59375 C 28.273438 -29.644531 26.671875 -29.734375 24.859375 -29.859375 C 23.046875 -29.992188 21.597656 -30.007812 20.515625 -29.90625 C 19.941406 -29.851562 19.203125 -29.8125 18.296875 -29.78125 C 17.390625 -29.757812 16.535156 -29.53125 15.734375 -29.09375 C 14.929688 -28.65625 14.398438 -27.757812 14.140625 -26.40625 C 13.984375 -25.425781 13.90625 -24.3125 13.90625 -23.0625 C 13.90625 -21.820312 13.929688 -20.765625 13.984375 -19.890625 C 14.035156 -18.847656 14.0625 -17.953125 14.0625 -17.203125 C 14.0625 -16.453125 14.242188 -15.882812 14.609375 -15.5 C 14.972656 -15.113281 15.722656 -14.921875 16.859375 -14.921875 C 18.773438 -14.921875 19.65625 -16.160156 19.5 -18.640625 C 19.445312 -19.421875 19.40625 -20.429688 19.375 -21.671875 C 19.351562 -22.921875 19.367188 -23.957031 19.421875 -24.78125 C 19.421875 -24.9375 19.484375 -25.15625 19.609375 -25.4375 C 19.742188 -25.726562 20.144531 -25.875 20.8125 -25.875 C 20.863281 -25.875 21.332031 -25.875 22.21875 -25.875 C 23.101562 -25.875 24.097656 -25.859375 25.203125 -25.828125 C 26.316406 -25.804688 27.3125 -25.796875 28.1875 -25.796875 C 29.070312 -25.796875 29.539062 -25.820312 29.59375 -25.875 C 30.0625 -25.875 30.296875 -25.640625 30.296875 -25.171875 C 30.296875 -24.648438 30.296875 -24.117188 30.296875 -23.578125 C 30.296875 -23.035156 30.296875 -22.503906 30.296875 -21.984375 C 30.296875 -20.640625 30.28125 -19.5 30.25 -18.5625 C 30.226562 -17.632812 30.203125 -16.703125 30.171875 -15.765625 C 30.148438 -14.835938 30.113281 -13.703125 30.0625 -12.359375 Z M 30.0625 -12.359375 "/></g></g></g><g fill="#b55040" fill-opacity="1"><g transform="translate(272.330095, 204.703523)"><g><path d="M 2.40625 -48.859375 L 16.703125 -48.859375 C 17.273438 -48.859375 17.535156 -48.550781 17.484375 -47.9375 C 17.378906 -46.4375 17.3125 -44.363281 17.28125 -41.71875 C 17.257812 -39.070312 17.25 -36.207031 17.25 -33.125 C 17.25 -30.050781 17.257812 -27.050781 17.28125 -24.125 C 17.3125 -21.195312 17.351562 -18.617188 17.40625 -16.390625 C 17.457031 -14.160156 17.484375 -12.609375 17.484375 -11.734375 C 17.535156 -9.921875 17.613281 -8.117188 17.71875 -6.328125 C 17.820312 -4.546875 17.945312 -2.75 18.09375 -0.9375 C 18.144531 -0.3125 17.863281 0 17.25 0 L 2.484375 0 C 2.273438 0 2.195312 -0.128906 2.25 -0.390625 C 2.351562 -1.054688 2.429688 -2.296875 2.484375 -4.109375 C 2.535156 -5.929688 2.5625 -7.96875 2.5625 -10.21875 C 2.5625 -12.46875 2.546875 -14.585938 2.515625 -16.578125 C 2.492188 -18.578125 2.457031 -20.09375 2.40625 -21.125 C 2.40625 -22.375 2.390625 -24.007812 2.359375 -26.03125 C 2.335938 -28.050781 2.3125 -30.222656 2.28125 -32.546875 C 2.257812 -34.878906 2.234375 -37.144531 2.203125 -39.34375 C 2.179688 -41.550781 2.15625 -43.484375 2.125 -45.140625 C 2.101562 -46.796875 2.09375 -47.9375 2.09375 -48.5625 C 2.144531 -48.601562 2.25 -48.703125 2.40625 -48.859375 Z M 2.40625 -48.859375 "/></g></g></g><g fill="#b55040" fill-opacity="1"><g transform="translate(292.450134, 204.703523)"><g><path d="M 30.375 -19.265625 C 30.375 -18.441406 30.347656 -17.171875 30.296875 -15.453125 C 30.242188 -13.742188 30.21875 -11.96875 30.21875 -10.125 C 30.21875 -8.289062 30.296875 -6.726562 30.453125 -5.4375 L 30.453125 -0.78125 C 30.453125 -0.257812 30.191406 0 29.671875 0 C 29.671875 0 29.851562 0 30.21875 0 C 30.582031 0 30.90625 0 31.1875 0 C 31.476562 0 31.582031 0 31.5 0 C 31.425781 0 30.960938 0 30.109375 0 C 29.253906 0 27.84375 0 25.875 0 C 22.601562 0 20 -0.191406 18.0625 -0.578125 C 16.125 -0.972656 14.609375 -1.453125 13.515625 -2.015625 C 12.429688 -2.585938 11.523438 -3.082031 10.796875 -3.5 C 9.710938 -4.164062 8.648438 -4.9375 7.609375 -5.8125 C 6.578125 -6.695312 5.75 -7.632812 5.125 -8.625 C 3.78125 -10.800781 2.910156 -12.753906 2.515625 -14.484375 C 2.128906 -16.222656 1.9375 -17.921875 1.9375 -19.578125 L 1.9375 -28.984375 C 1.9375 -28.984375 1.9375 -28.835938 1.9375 -28.546875 C 1.9375 -28.265625 1.9375 -27.992188 1.9375 -27.734375 C 1.9375 -27.472656 1.9375 -27.40625 1.9375 -27.53125 C 1.9375 -27.664062 1.9375 -28.175781 1.9375 -29.0625 C 1.9375 -30.769531 2.066406 -32.425781 2.328125 -34.03125 C 2.585938 -35.632812 2.953125 -37.109375 3.421875 -38.453125 C 3.835938 -39.742188 4.484375 -40.90625 5.359375 -41.9375 C 6.242188 -42.976562 7.175781 -43.992188 8.15625 -44.984375 C 9.757812 -46.484375 11.90625 -47.503906 14.59375 -48.046875 C 17.289062 -48.585938 20.09375 -48.859375 23 -48.859375 C 25.226562 -48.859375 26.882812 -48.859375 27.96875 -48.859375 C 29.050781 -48.859375 29.734375 -48.859375 30.015625 -48.859375 C 30.304688 -48.859375 30.375 -48.859375 30.21875 -48.859375 C 30.0625 -48.859375 29.851562 -48.859375 29.59375 -48.859375 C 29.332031 -48.859375 29.203125 -48.859375 29.203125 -48.859375 C 29.359375 -48.859375 29.601562 -48.71875 29.9375 -48.4375 C 30.28125 -48.15625 30.453125 -47.910156 30.453125 -47.703125 L 30.453125 -43.734375 C 30.398438 -43.523438 30.359375 -43.316406 30.328125 -43.109375 C 30.304688 -42.910156 30.296875 -42.707031 30.296875 -42.5 C 30.242188 -42.03125 30.21875 -41.132812 30.21875 -39.8125 C 30.21875 -38.488281 30.242188 -37.078125 30.296875 -35.578125 C 30.347656 -34.078125 30.382812 -32.78125 30.40625 -31.6875 C 30.4375 -30.601562 30.453125 -30.0625 30.453125 -30.0625 C 30.453125 -29.539062 30.21875 -29.28125 29.75 -29.28125 C 29.03125 -29.332031 28.046875 -29.332031 26.796875 -29.28125 C 25.554688 -29.226562 24.351562 -29.164062 23.1875 -29.09375 C 22.019531 -29.019531 21.207031 -28.984375 20.75 -28.984375 C 19.5 -28.929688 18.5625 -28.601562 17.9375 -28 C 17.320312 -27.40625 16.910156 -26.757812 16.703125 -26.0625 C 16.492188 -25.363281 16.390625 -24.804688 16.390625 -24.390625 C 16.390625 -23.828125 16.476562 -23.242188 16.65625 -22.640625 C 16.84375 -22.046875 17.117188 -21.566406 17.484375 -21.203125 C 18.097656 -20.640625 18.816406 -20.253906 19.640625 -20.046875 C 20.472656 -19.835938 21.410156 -19.679688 22.453125 -19.578125 C 23.484375 -19.472656 24.539062 -19.445312 25.625 -19.5 C 26.71875 -19.550781 27.640625 -19.601562 28.390625 -19.65625 C 29.140625 -19.707031 29.566406 -19.734375 29.671875 -19.734375 C 30.035156 -19.734375 30.269531 -19.578125 30.375 -19.265625 Z M 30.375 -19.265625 "/></g></g></g><g fill="#b55040" fill-opacity="1"><g transform="translate(325.621015, 204.703523)"><g><path d="M 35.890625 -4.265625 C 36.046875 -3.546875 36.226562 -2.835938 36.4375 -2.140625 C 36.644531 -1.441406 36.851562 -0.726562 37.0625 0 L 21.359375 0 C 21.304688 -0.363281 21.28125 -0.710938 21.28125 -1.046875 C 21.28125 -1.378906 21.28125 -1.726562 21.28125 -2.09375 C 21.125 -3.539062 20.984375 -4.796875 20.859375 -5.859375 C 20.734375 -6.921875 20.539062 -8.078125 20.28125 -9.328125 C 20.019531 -10.304688 19.863281 -11.039062 19.8125 -11.53125 C 19.757812 -12.03125 19.085938 -12.304688 17.796875 -12.359375 C 16.859375 -12.410156 16.285156 -12.054688 16.078125 -11.296875 C 15.867188 -10.546875 15.6875 -9.367188 15.53125 -7.765625 C 15.425781 -6.472656 15.320312 -5.175781 15.21875 -3.875 C 15.125 -2.582031 15.078125 -1.289062 15.078125 0 L 1.546875 0 C 2.378906 -3.625 3.066406 -7.285156 3.609375 -10.984375 C 4.148438 -14.691406 4.707031 -18.382812 5.28125 -22.0625 C 5.851562 -25.894531 6.59375 -29.6875 7.5 -33.4375 C 8.40625 -37.195312 9.117188 -41.019531 9.640625 -44.90625 C 9.785156 -46.25 9.910156 -47.566406 10.015625 -48.859375 L 27.1875 -48.859375 C 27.550781 -45.179688 28.054688 -41.554688 28.703125 -37.984375 C 29.347656 -34.410156 30.035156 -30.863281 30.765625 -27.34375 C 31.585938 -23.507812 32.398438 -19.648438 33.203125 -15.765625 C 34.015625 -11.878906 34.910156 -8.046875 35.890625 -4.265625 Z M 17.328125 -33.5625 C 17.066406 -31.4375 16.832031 -29.554688 16.625 -27.921875 C 16.414062 -26.296875 16.425781 -25.003906 16.65625 -24.046875 C 16.894531 -23.085938 17.503906 -22.582031 18.484375 -22.53125 C 18.535156 -22.53125 18.5625 -22.53125 18.5625 -22.53125 C 18.664062 -22.53125 18.769531 -22.59375 18.875 -22.71875 C 18.976562 -22.851562 19.082031 -22.945312 19.1875 -23 C 19.5 -23.050781 19.679688 -23.398438 19.734375 -24.046875 C 19.785156 -24.691406 19.796875 -25.441406 19.765625 -26.296875 C 19.742188 -27.148438 19.707031 -27.890625 19.65625 -28.515625 C 19.601562 -29.546875 19.507812 -30.578125 19.375 -31.609375 C 19.25 -32.648438 18.925781 -33.484375 18.40625 -34.109375 C 18.25 -34.265625 18.039062 -34.300781 17.78125 -34.21875 C 17.53125 -34.144531 17.378906 -33.925781 17.328125 -33.5625 Z M 17.328125 -33.5625 "/></g></g></g><g fill="#b55040" fill-opacity="1"><g transform="translate(96.579828, 233.820145)"><g><path d="M 9.1875 -12.234375 C 8.925781 -12.734375 8.457031 -13.144531 7.78125 -13.46875 C 7.113281 -13.800781 6.410156 -13.96875 5.671875 -13.96875 C 4.921875 -13.96875 4.28125 -13.753906 3.75 -13.328125 C 3.21875 -12.898438 2.953125 -12.328125 2.953125 -11.609375 C 2.953125 -10.867188 3.144531 -10.296875 3.53125 -9.890625 C 3.925781 -9.484375 4.414062 -9.195312 5 -9.03125 C 5.582031 -8.875 6.21875 -8.679688 6.90625 -8.453125 C 7.59375 -8.234375 8.222656 -8 8.796875 -7.75 C 9.378906 -7.5 9.867188 -7.078125 10.265625 -6.484375 C 10.660156 -5.890625 10.859375 -5.171875 10.859375 -4.328125 C 10.859375 -3.484375 10.703125 -2.757812 10.390625 -2.15625 C 10.085938 -1.5625 9.675781 -1.097656 9.15625 -0.765625 C 8.144531 -0.109375 6.992188 0.21875 5.703125 0.21875 C 4.410156 0.21875 3.304688 0.0078125 2.390625 -0.40625 C 1.484375 -0.820312 1.03125 -1.328125 1.03125 -1.921875 C 1.03125 -2.273438 1.222656 -2.578125 1.609375 -2.828125 C 1.734375 -2.898438 1.929688 -3.003906 2.203125 -3.140625 C 2.492188 -2.578125 3.015625 -2.113281 3.765625 -1.75 C 4.523438 -1.394531 5.316406 -1.21875 6.140625 -1.21875 C 6.953125 -1.21875 7.660156 -1.445312 8.265625 -1.90625 C 8.878906 -2.375 9.1875 -3.007812 9.1875 -3.8125 C 9.1875 -4.601562 8.914062 -5.207031 8.375 -5.625 C 7.84375 -6.050781 7.1875 -6.367188 6.40625 -6.578125 C 5.632812 -6.796875 4.863281 -7.035156 4.09375 -7.296875 C 3.320312 -7.554688 2.664062 -7.992188 2.125 -8.609375 C 1.582031 -9.234375 1.3125 -10.054688 1.3125 -11.078125 C 1.3125 -12.484375 1.773438 -13.5625 2.703125 -14.3125 C 3.628906 -15.0625 4.804688 -15.4375 6.234375 -15.4375 C 7.285156 -15.4375 8.257812 -15.253906 9.15625 -14.890625 C 10.050781 -14.523438 10.5 -14.019531 10.5 -13.375 C 10.5 -12.757812 10.0625 -12.378906 9.1875 -12.234375 Z M 9.1875 -12.234375 "/></g></g></g><g fill="#b55040" fill-opacity="1"><g transform="translate(108.460958, 233.820145)"><g><path d="M 1.796875 -1.3125 L 1.84375 -5.140625 L 1.84375 -9.71875 C 1.84375 -11.90625 1.734375 -13.691406 1.515625 -15.078125 C 3.148438 -15.210938 4.945312 -15.28125 6.90625 -15.28125 C 8.851562 -15.28125 9.957031 -15.160156 10.21875 -14.921875 C 10.363281 -14.804688 10.4375 -14.585938 10.4375 -14.265625 C 10.4375 -13.941406 10.375 -13.628906 10.25 -13.328125 C 9.382812 -13.648438 7.960938 -13.8125 5.984375 -13.8125 C 5.171875 -13.8125 4.328125 -13.789062 3.453125 -13.75 C 3.515625 -13.070312 3.546875 -11.445312 3.546875 -8.875 L 5.359375 -8.875 C 6.648438 -8.875 7.570312 -8.90625 8.125 -8.96875 C 8.175781 -8.84375 8.203125 -8.625 8.203125 -8.3125 C 8.203125 -8 8.125 -7.78125 7.96875 -7.65625 C 7.8125 -7.539062 7.546875 -7.472656 7.171875 -7.453125 C 6.796875 -7.441406 6.265625 -7.4375 5.578125 -7.4375 L 3.546875 -7.4375 C 3.546875 -4.101562 3.601562 -2.097656 3.71875 -1.421875 C 4.382812 -1.390625 4.925781 -1.375 5.34375 -1.375 C 7.90625 -1.375 9.550781 -1.550781 10.28125 -1.90625 C 10.394531 -1.59375 10.453125 -1.28125 10.453125 -0.96875 C 10.453125 -0.644531 10.382812 -0.421875 10.25 -0.296875 C 9.976562 -0.0664062 8.804688 0.046875 6.734375 0.046875 C 4.648438 0.046875 3.378906 0.0351562 2.921875 0.015625 C 2.472656 -0.00390625 2.171875 -0.113281 2.015625 -0.3125 C 1.867188 -0.507812 1.796875 -0.84375 1.796875 -1.3125 Z M 1.796875 -1.3125 "/></g></g></g><g fill="#b55040" fill-opacity="1"><g transform="translate(119.603016, 233.820145)"><g><path d="M 1.84375 -4.40625 L 2.03125 -11.484375 C 2.03125 -12.941406 1.898438 -14.144531 1.640625 -15.09375 C 1.953125 -15.21875 2.316406 -15.28125 2.734375 -15.28125 C 3.140625 -15.28125 3.445312 -15.191406 3.65625 -15.015625 C 3.863281 -14.835938 3.96875 -14.476562 3.96875 -13.9375 C 3.96875 -13.382812 3.910156 -11.988281 3.796875 -9.75 C 3.679688 -7.507812 3.625 -5.816406 3.625 -4.671875 C 3.625 -3.515625 3.929688 -2.65625 4.546875 -2.09375 C 5.171875 -1.53125 5.875 -1.25 6.65625 -1.25 C 7.425781 -1.25 8.222656 -1.429688 9.046875 -1.796875 C 9.878906 -2.160156 10.554688 -2.582031 11.078125 -3.0625 L 11.09375 -6.015625 L 11.09375 -9.890625 C 11.09375 -12.035156 11.039062 -13.804688 10.9375 -15.203125 C 11.195312 -15.253906 11.515625 -15.28125 11.890625 -15.28125 C 12.628906 -15.28125 13 -14.988281 13 -14.40625 C 13 -14.375 12.984375 -14.085938 12.953125 -13.546875 C 12.867188 -11.941406 12.828125 -9.875 12.828125 -7.34375 C 12.828125 -4.800781 12.847656 -3.128906 12.890625 -2.328125 C 12.929688 -1.523438 13.054688 -0.785156 13.265625 -0.109375 C 12.984375 0.00390625 12.628906 0.0625 12.203125 0.0625 C 11.753906 0.0625 11.445312 -0.03125 11.28125 -0.21875 C 11.125 -0.40625 11.046875 -0.757812 11.046875 -1.28125 L 11.046875 -1.53125 C 10.441406 -1.019531 9.710938 -0.597656 8.859375 -0.265625 C 8.003906 0.0546875 7.21875 0.21875 6.5 0.21875 C 5.050781 0.21875 3.910156 -0.117188 3.078125 -0.796875 C 2.253906 -1.472656 1.84375 -2.675781 1.84375 -4.40625 Z M 1.84375 -4.40625 "/></g></g></g><g fill="#b55040" fill-opacity="1"><g transform="translate(134.373241, 233.820145)"><g/></g></g><g fill="#b55040" fill-opacity="1"><g transform="translate(140.061847, 233.820145)"><g><path d="M 9.1875 -12.234375 C 8.925781 -12.734375 8.457031 -13.144531 7.78125 -13.46875 C 7.113281 -13.800781 6.410156 -13.96875 5.671875 -13.96875 C 4.921875 -13.96875 4.28125 -13.753906 3.75 -13.328125 C 3.21875 -12.898438 2.953125 -12.328125 2.953125 -11.609375 C 2.953125 -10.867188 3.144531 -10.296875 3.53125 -9.890625 C 3.925781 -9.484375 4.414062 -9.195312 5 -9.03125 C 5.582031 -8.875 6.21875 -8.679688 6.90625 -8.453125 C 7.59375 -8.234375 8.222656 -8 8.796875 -7.75 C 9.378906 -7.5 9.867188 -7.078125 10.265625 -6.484375 C 10.660156 -5.890625 10.859375 -5.171875 10.859375 -4.328125 C 10.859375 -3.484375 10.703125 -2.757812 10.390625 -2.15625 C 10.085938 -1.5625 9.675781 -1.097656 9.15625 -0.765625 C 8.144531 -0.109375 6.992188 0.21875 5.703125 0.21875 C 4.410156 0.21875 3.304688 0.0078125 2.390625 -0.40625 C 1.484375 -0.820312 1.03125 -1.328125 1.03125 -1.921875 C 1.03125 -2.273438 1.222656 -2.578125 1.609375 -2.828125 C 1.734375 -2.898438 1.929688 -3.003906 2.203125 -3.140625 C 2.492188 -2.578125 3.015625 -2.113281 3.765625 -1.75 C 4.523438 -1.394531 5.316406 -1.21875 6.140625 -1.21875 C 6.953125 -1.21875 7.660156 -1.445312 8.265625 -1.90625 C 8.878906 -2.375 9.1875 -3.007812 9.1875 -3.8125 C 9.1875 -4.601562 8.914062 -5.207031 8.375 -5.625 C 7.84375 -6.050781 7.1875 -6.367188 6.40625 -6.578125 C 5.632812 -6.796875 4.863281 -7.035156 4.09375 -7.296875 C 3.320312 -7.554688 2.664062 -7.992188 2.125 -8.609375 C 1.582031 -9.234375 1.3125 -10.054688 1.3125 -11.078125 C 1.3125 -12.484375 1.773438 -13.5625 2.703125 -14.3125 C 3.628906 -15.0625 4.804688 -15.4375 6.234375 -15.4375 C 7.285156 -15.4375 8.257812 -15.253906 9.15625 -14.890625 C 10.050781 -14.523438 10.5 -14.019531 10.5 -13.375 C 10.5 -12.757812 10.0625 -12.378906 9.1875 -12.234375 Z M 9.1875 -12.234375 "/></g></g></g><g fill="#b55040" fill-opacity="1"><g transform="translate(151.942976, 233.820145)"><g><path d="M 1.625 -1.25 L 1.6875 -5.296875 L 1.6875 -9.890625 C 1.6875 -12.035156 1.628906 -13.804688 1.515625 -15.203125 C 1.773438 -15.253906 2.085938 -15.28125 2.453125 -15.28125 C 3.203125 -15.28125 3.578125 -14.988281 3.578125 -14.40625 C 3.578125 -14.332031 3.5625 -14.023438 3.53125 -13.484375 C 3.4375 -11.847656 3.390625 -10.34375 3.390625 -8.96875 C 4.117188 -8.9375 5.34375 -8.921875 7.0625 -8.921875 C 8.757812 -8.921875 9.972656 -8.9375 10.703125 -8.96875 L 10.703125 -10.140625 C 10.691406 -12.335938 10.640625 -14.023438 10.546875 -15.203125 C 10.804688 -15.253906 11.117188 -15.28125 11.484375 -15.28125 C 12.234375 -15.28125 12.609375 -14.988281 12.609375 -14.40625 C 12.609375 -14.3125 12.59375 -14.003906 12.5625 -13.484375 C 12.476562 -11.890625 12.4375 -10.484375 12.4375 -9.265625 L 12.4375 -4.65625 C 12.4375 -2.59375 12.582031 -1.078125 12.875 -0.109375 C 12.59375 0.00390625 12.234375 0.0625 11.796875 0.0625 C 11.347656 0.0625 11.046875 -0.0351562 10.890625 -0.234375 C 10.734375 -0.429688 10.65625 -0.769531 10.65625 -1.25 L 10.703125 -5.296875 L 10.703125 -7.609375 C 9.929688 -7.585938 8.703125 -7.578125 7.015625 -7.578125 C 5.328125 -7.578125 4.117188 -7.585938 3.390625 -7.609375 L 3.390625 -4.65625 C 3.390625 -2.59375 3.535156 -1.078125 3.828125 -0.109375 C 3.554688 0.00390625 3.195312 0.0625 2.75 0.0625 C 2.300781 0.0625 2 -0.0351562 1.84375 -0.234375 C 1.695312 -0.429688 1.625 -0.769531 1.625 -1.25 Z M 1.625 -1.25 "/></g></g></g><g fill="#b55040" fill-opacity="1"><g transform="translate(166.321263, 233.820145)"><g><path d="M 15.203125 -7.609375 C 15.203125 -5.222656 14.5625 -3.320312 13.28125 -1.90625 C 12.007812 -0.488281 10.300781 0.21875 8.15625 0.21875 C 6 0.21875 4.285156 -0.488281 3.015625 -1.90625 C 1.753906 -3.320312 1.125 -5.222656 1.125 -7.609375 C 1.125 -9.992188 1.753906 -11.894531 3.015625 -13.3125 C 4.285156 -14.726562 6 -15.4375 8.15625 -15.4375 C 10.300781 -15.4375 12.007812 -14.726562 13.28125 -13.3125 C 14.5625 -11.894531 15.203125 -9.992188 15.203125 -7.609375 Z M 12.125 -11.8125 C 11.75 -12.488281 11.21875 -13.023438 10.53125 -13.421875 C 9.84375 -13.828125 9.054688 -14.03125 8.171875 -14.03125 C 6.585938 -14.03125 5.328125 -13.492188 4.390625 -12.421875 C 3.460938 -11.347656 3 -9.972656 3 -8.296875 C 3 -6.484375 3.382812 -4.867188 4.15625 -3.453125 C 4.53125 -2.753906 5.054688 -2.195312 5.734375 -1.78125 C 6.421875 -1.375 7.21875 -1.171875 8.125 -1.171875 C 9.769531 -1.171875 11.039062 -1.722656 11.9375 -2.828125 C 12.832031 -3.929688 13.28125 -5.367188 13.28125 -7.140625 C 13.28125 -8.898438 12.894531 -10.457031 12.125 -11.8125 Z M 12.125 -11.8125 "/></g></g></g><g fill="#b55040" fill-opacity="1"><g transform="translate(182.64801, 233.820145)"><g><path d="M 3.53125 -7.546875 C 4.207031 -7.171875 5.019531 -6.984375 5.96875 -6.984375 C 6.90625 -6.984375 7.671875 -7.28125 8.265625 -7.875 C 8.859375 -8.476562 9.15625 -9.296875 9.15625 -10.328125 C 9.15625 -11.734375 8.820312 -12.703125 8.15625 -13.234375 C 7.5 -13.765625 6.476562 -14.03125 5.09375 -14.03125 C 4.6875 -14.03125 4.132812 -14 3.4375 -13.9375 C 3.5 -13.050781 3.53125 -11.492188 3.53125 -9.265625 Z M 1.765625 -1.25 L 1.8125 -5.296875 L 1.8125 -9.890625 C 1.8125 -11.992188 1.710938 -13.753906 1.515625 -15.171875 C 2.648438 -15.347656 3.785156 -15.4375 4.921875 -15.4375 C 9.023438 -15.4375 11.078125 -13.785156 11.078125 -10.484375 C 11.078125 -8.890625 10.597656 -7.671875 9.640625 -6.828125 C 8.679688 -5.992188 7.613281 -5.578125 6.4375 -5.578125 C 5.25 -5.578125 4.28125 -5.820312 3.53125 -6.3125 L 3.53125 -4.65625 C 3.53125 -2.59375 3.675781 -1.078125 3.96875 -0.109375 C 3.6875 0.00390625 3.328125 0.0625 2.890625 0.0625 C 2.453125 0.0625 2.15625 -0.0351562 2 -0.234375 C 1.84375 -0.429688 1.765625 -0.769531 1.765625 -1.25 Z M 1.765625 -1.25 "/></g></g></g><g fill="#b55040" fill-opacity="1"><g transform="translate(194.204391, 233.820145)"><g><path d="M 3.53125 -7.546875 C 4.207031 -7.171875 5.019531 -6.984375 5.96875 -6.984375 C 6.90625 -6.984375 7.671875 -7.28125 8.265625 -7.875 C 8.859375 -8.476562 9.15625 -9.296875 9.15625 -10.328125 C 9.15625 -11.734375 8.820312 -12.703125 8.15625 -13.234375 C 7.5 -13.765625 6.476562 -14.03125 5.09375 -14.03125 C 4.6875 -14.03125 4.132812 -14 3.4375 -13.9375 C 3.5 -13.050781 3.53125 -11.492188 3.53125 -9.265625 Z M 1.765625 -1.25 L 1.8125 -5.296875 L 1.8125 -9.890625 C 1.8125 -11.992188 1.710938 -13.753906 1.515625 -15.171875 C 2.648438 -15.347656 3.785156 -15.4375 4.921875 -15.4375 C 9.023438 -15.4375 11.078125 -13.785156 11.078125 -10.484375 C 11.078125 -8.890625 10.597656 -7.671875 9.640625 -6.828125 C 8.679688 -5.992188 7.613281 -5.578125 6.4375 -5.578125 C 5.25 -5.578125 4.28125 -5.820312 3.53125 -6.3125 L 3.53125 -4.65625 C 3.53125 -2.59375 3.675781 -1.078125 3.96875 -0.109375 C 3.6875 0.00390625 3.328125 0.0625 2.890625 0.0625 C 2.453125 0.0625 2.15625 -0.0351562 2 -0.234375 C 1.84375 -0.429688 1.765625 -0.769531 1.765625 -1.25 Z M 1.765625 -1.25 "/></g></g></g><g fill="#b55040" fill-opacity="1"><g transform="translate(205.760771, 233.820145)"><g><path d="M 1.625 -1.25 L 1.6875 -5.296875 L 1.6875 -9.890625 C 1.6875 -12.035156 1.628906 -13.804688 1.515625 -15.203125 C 1.773438 -15.253906 2.085938 -15.28125 2.453125 -15.28125 C 3.203125 -15.28125 3.578125 -14.988281 3.578125 -14.40625 C 3.578125 -14.3125 3.5625 -14.003906 3.53125 -13.484375 C 3.4375 -11.890625 3.390625 -10.484375 3.390625 -9.265625 L 3.390625 -4.65625 C 3.390625 -2.59375 3.535156 -1.078125 3.828125 -0.109375 C 3.554688 0.00390625 3.195312 0.0625 2.75 0.0625 C 2.300781 0.0625 2 -0.0351562 1.84375 -0.234375 C 1.695312 -0.429688 1.625 -0.769531 1.625 -1.25 Z M 1.625 -1.25 "/></g></g></g><g fill="#b55040" fill-opacity="1"><g transform="translate(210.83349, 233.820145)"><g><path d="M 11.125 -2.734375 C 11.03125 -3.828125 10.984375 -5.753906 10.984375 -8.515625 L 10.984375 -9.890625 C 10.984375 -12.035156 10.929688 -13.804688 10.828125 -15.203125 C 11.085938 -15.253906 11.320312 -15.28125 11.53125 -15.28125 C 12.28125 -15.28125 12.65625 -14.988281 12.65625 -14.40625 C 12.65625 -14.3125 12.640625 -14.003906 12.609375 -13.484375 C 12.523438 -11.890625 12.484375 -10.484375 12.484375 -9.265625 L 12.484375 -5.34375 C 12.484375 -3.1875 12.535156 -1.410156 12.640625 -0.015625 C 12.398438 0.0351562 12.148438 0.0625 11.890625 0.0625 C 11.359375 0.0625 10.957031 -0.140625 10.6875 -0.546875 C 10.0625 -1.515625 8.976562 -3.363281 7.4375 -6.09375 C 5.894531 -8.820312 4.566406 -11.007812 3.453125 -12.65625 C 3.441406 -12.082031 3.4375 -9.414062 3.4375 -4.65625 C 3.4375 -2.59375 3.582031 -1.078125 3.875 -0.109375 C 3.59375 0.00390625 3.269531 0.0625 2.90625 0.0625 C 2.539062 0.0625 2.28125 -0.0351562 2.125 -0.234375 C 1.976562 -0.429688 1.90625 -0.769531 1.90625 -1.25 L 1.953125 -5.296875 L 1.953125 -9.890625 C 1.953125 -12.441406 1.804688 -14.1875 1.515625 -15.125 C 1.804688 -15.238281 2.132812 -15.296875 2.5 -15.296875 C 2.863281 -15.296875 3.128906 -15.242188 3.296875 -15.140625 C 3.960938 -14.734375 5.132812 -13.132812 6.8125 -10.34375 C 8.5 -7.5625 9.9375 -5.023438 11.125 -2.734375 Z M 11.125 -2.734375 "/></g></g></g><g fill="#b55040" fill-opacity="1"><g transform="translate(225.25657, 233.820145)"><g><path d="M 12.796875 -1.953125 C 12.796875 -1.398438 12.359375 -0.898438 11.484375 -0.453125 C 10.617188 -0.00390625 9.539062 0.21875 8.25 0.21875 C 6.101562 0.21875 4.378906 -0.5 3.078125 -1.9375 C 1.773438 -3.382812 1.125 -5.304688 1.125 -7.703125 C 1.125 -10.097656 1.773438 -11.984375 3.078125 -13.359375 C 4.378906 -14.742188 6.132812 -15.4375 8.34375 -15.4375 C 9.539062 -15.4375 10.539062 -15.191406 11.34375 -14.703125 C 12.15625 -14.222656 12.5625 -13.632812 12.5625 -12.9375 C 12.5625 -12.3125 12.128906 -11.929688 11.265625 -11.796875 C 10.972656 -12.535156 10.515625 -13.09375 9.890625 -13.46875 C 9.265625 -13.84375 8.597656 -14.03125 7.890625 -14.03125 C 6.453125 -14.03125 5.273438 -13.460938 4.359375 -12.328125 C 3.453125 -11.191406 3 -9.710938 3 -7.890625 C 3 -6.054688 3.457031 -4.476562 4.375 -3.15625 C 5.289062 -1.832031 6.566406 -1.171875 8.203125 -1.171875 C 9.429688 -1.171875 10.421875 -1.539062 11.171875 -2.28125 C 11.140625 -4.1875 11.085938 -5.726562 11.015625 -6.90625 C 11.273438 -6.957031 11.550781 -6.984375 11.84375 -6.984375 C 12.582031 -6.984375 12.953125 -6.691406 12.953125 -6.109375 L 12.890625 -4.640625 C 12.828125 -3.660156 12.796875 -2.765625 12.796875 -1.953125 Z M 12.796875 -1.953125 "/></g></g></g><g fill="#b55040" fill-opacity="1"><g transform="translate(239.366104, 233.820145)"><g/></g></g><g fill="#b55040" fill-opacity="1"><g transform="translate(245.05471, 233.820145)"><g><path d="M 3.53125 -7.546875 C 4.207031 -7.171875 5.019531 -6.984375 5.96875 -6.984375 C 6.90625 -6.984375 7.671875 -7.28125 8.265625 -7.875 C 8.859375 -8.476562 9.15625 -9.296875 9.15625 -10.328125 C 9.15625 -11.734375 8.820312 -12.703125 8.15625 -13.234375 C 7.5 -13.765625 6.476562 -14.03125 5.09375 -14.03125 C 4.6875 -14.03125 4.132812 -14 3.4375 -13.9375 C 3.5 -13.050781 3.53125 -11.492188 3.53125 -9.265625 Z M 1.765625 -1.25 L 1.8125 -5.296875 L 1.8125 -9.890625 C 1.8125 -11.992188 1.710938 -13.753906 1.515625 -15.171875 C 2.648438 -15.347656 3.785156 -15.4375 4.921875 -15.4375 C 9.023438 -15.4375 11.078125 -13.785156 11.078125 -10.484375 C 11.078125 -8.890625 10.597656 -7.671875 9.640625 -6.828125 C 8.679688 -5.992188 7.613281 -5.578125 6.4375 -5.578125 C 5.25 -5.578125 4.28125 -5.820312 3.53125 -6.3125 L 3.53125 -4.65625 C 3.53125 -2.59375 3.675781 -1.078125 3.96875 -0.109375 C 3.6875 0.00390625 3.328125 0.0625 2.890625 0.0625 C 2.453125 0.0625 2.15625 -0.0351562 2 -0.234375 C 1.84375 -0.429688 1.765625 -0.769531 1.765625 -1.25 Z M 1.765625 -1.25 "/></g></g></g><g fill="#b55040" fill-opacity="1"><g transform="translate(256.611091, 233.820145)"><g><path d="M 1.796875 -1.3125 L 1.84375 -5.140625 L 1.84375 -9.71875 C 1.84375 -11.90625 1.734375 -13.691406 1.515625 -15.078125 C 3.148438 -15.210938 4.945312 -15.28125 6.90625 -15.28125 C 8.851562 -15.28125 9.957031 -15.160156 10.21875 -14.921875 C 10.363281 -14.804688 10.4375 -14.585938 10.4375 -14.265625 C 10.4375 -13.941406 10.375 -13.628906 10.25 -13.328125 C 9.382812 -13.648438 7.960938 -13.8125 5.984375 -13.8125 C 5.171875 -13.8125 4.328125 -13.789062 3.453125 -13.75 C 3.515625 -13.070312 3.546875 -11.445312 3.546875 -8.875 L 5.359375 -8.875 C 6.648438 -8.875 7.570312 -8.90625 8.125 -8.96875 C 8.175781 -8.84375 8.203125 -8.625 8.203125 -8.3125 C 8.203125 -8 8.125 -7.78125 7.96875 -7.65625 C 7.8125 -7.539062 7.546875 -7.472656 7.171875 -7.453125 C 6.796875 -7.441406 6.265625 -7.4375 5.578125 -7.4375 L 3.546875 -7.4375 C 3.546875 -4.101562 3.601562 -2.097656 3.71875 -1.421875 C 4.382812 -1.390625 4.925781 -1.375 5.34375 -1.375 C 7.90625 -1.375 9.550781 -1.550781 10.28125 -1.90625 C 10.394531 -1.59375 10.453125 -1.28125 10.453125 -0.96875 C 10.453125 -0.644531 10.382812 -0.421875 10.25 -0.296875 C 9.976562 -0.0664062 8.804688 0.046875 6.734375 0.046875 C 4.648438 0.046875 3.378906 0.0351562 2.921875 0.015625 C 2.472656 -0.00390625 2.171875 -0.113281 2.015625 -0.3125 C 1.867188 -0.507812 1.796875 -0.84375 1.796875 -1.3125 Z M 1.796875 -1.3125 "/></g></g></g><g fill="#b55040" fill-opacity="1"><g transform="translate(267.753149, 233.820145)"><g><path d="M 4.453125 -1.25 L 4.484375 -5.296875 L 4.484375 -9.890625 C 4.484375 -11.304688 4.460938 -12.613281 4.421875 -13.8125 C 2.253906 -13.8125 0.800781 -13.78125 0.0625 -13.71875 C 0.0195312 -13.851562 0 -14.066406 0 -14.359375 C 0 -14.648438 0.078125 -14.847656 0.234375 -14.953125 C 0.398438 -15.066406 0.664062 -15.128906 1.03125 -15.140625 C 1.394531 -15.160156 2.203125 -15.171875 3.453125 -15.171875 L 6.171875 -15.171875 C 8.578125 -15.171875 10.050781 -15.191406 10.59375 -15.234375 C 10.632812 -15.085938 10.65625 -14.878906 10.65625 -14.609375 C 10.65625 -14.316406 10.578125 -14.117188 10.421875 -14.015625 C 10.265625 -13.910156 9.976562 -13.847656 9.5625 -13.828125 C 9.15625 -13.816406 8.09375 -13.8125 6.375 -13.8125 C 6.269531 -11.625 6.21875 -10.109375 6.21875 -9.265625 L 6.21875 -4.65625 C 6.21875 -2.59375 6.363281 -1.078125 6.65625 -0.109375 C 6.375 0.00390625 6.015625 0.0625 5.578125 0.0625 C 5.128906 0.0625 4.828125 -0.0351562 4.671875 -0.234375 C 4.523438 -0.429688 4.453125 -0.769531 4.453125 -1.25 Z M 4.453125 -1.25 "/></g></g></g></svg>